<svg id="Layer_1" data-name="Layer 1" xmlns="http://www.w3.org/2000/svg" xmlns:xlink="http://www.w3.org/1999/xlink" width="64.1" height="64" viewBox="0 0 64.1 64"><circle cx="30.1" cy="30.1" r="30.1" fill="#6c7ab5"/><image width="1624" height="1430" transform="translate(2.7 21.6) rotate(-17.3) scale(0.03)" xlink:href="joy%20stick.png"/><path d="M7.5,37.3a3.1,3.1,0,0,1-3.7-2.7,3.1,3.1,0,0,1,.5-2l1.2.8a1.2,1.2,0,0,0-.3,1c.1.8.9,1.3,2,1.2s1.8-.9,1.7-1.7a2.3,2.3,0,0,0-.7-1l.9-1a2.5,2.5,0,0,1,1.2,2A3,3,0,0,1,7.5,37.3Z" transform="translate(-1.5 -1.5)" fill="#fff"/><path d="M3.7,30.2l.2-1.7,4.9.7.4-2.7,1.4.2L10,31Z" transform="translate(-1.5 -1.5)" fill="#fff"/><path d="M9.5,25.4l.5-1.3L6.7,22.8l-.5,1.3-1.3-.5,1.7-4.3,1.3.6-.5,1.3,3.3,1.3.5-1.3,1.3.5L10.8,26Z" transform="translate(-1.5 -1.5)" fill="#fff"/><path d="M10.3,19.2a3.1,3.1,0,0,1-.8-4.5,3,3,0,0,1,1.8-1l.3,1.3a1.5,1.5,0,0,0-.9.6c-.5.6-.3,1.5.6,2.2s1.9.6,2.4,0a1.7,1.7,0,0,0,.2-1.2h1.4a3.2,3.2,0,0,1-.6,2.3C13.8,20,12.1,20.5,10.3,19.2Z" transform="translate(-1.5 -1.5)" fill="#fff"/><path d="M12.2,11.8l1.4-1.1L15,12.6h.1l-.3-2.8,1.5-1.1.2,5.8,1,1.3-1.3,1.1Zm4,1.5V11.6l4.3,1.8-1.5,1.2Z" transform="translate(-1.5 -1.5)" fill="#fff"/><path d="M24.8,9.7c-.3-2,2.2-2.4,2.1-3.6s-.2-.4-.4-.4-.3.3-.2.7,1.6,2,2.9,2.5a2.4,2.4,0,0,0,1.3.4l-.2,1.4a3.8,3.8,0,0,1-1.9-.6c-1.7-.7-3.3-2.4-3.5-3.5a1.6,1.6,0,0,1,1.4-1.9,1.4,1.4,0,0,1,1.8,1.2c.3,1.6-1.9,2.3-1.7,3.5a.6.6,0,0,0,.8.5c.3,0,.6-.3.9-.8a3.7,3.7,0,0,0,.5-2l1.5-.2a6.9,6.9,0,0,1-.8,2.8,2.8,2.8,0,0,1-2.1,1.5A1.9,1.9,0,0,1,24.8,9.7Z" transform="translate(-1.5 -1.5)" fill="#fff"/><path d="M38.6,5.3l2.2.8c1.3.5,2.2,1.4,1.6,2.9a2.2,2.2,0,0,1-3.1,1.2l-.7-.3-.7,1.9-1.6-.6Zm1.1,3.6a.9.9,0,0,0,1.2-.5c.2-.5,0-.8-.6-1.1l-.6-.2-.6,1.6Z" transform="translate(-1.5 -1.5)" fill="#fff"/><path d="M44.3,7.7l1.4.9-2.6,4.1,2.2,1.5-.7,1.2L40.9,13Z" transform="translate(-1.5 -1.5)" fill="#fff"/><path d="M51.2,13l1.3,1.6L49,20.2l-1.2-1.4,1.9-2.5,1.2-1.7h0l-1.9,1L46.2,17l-1.1-1.3ZM48,15l2,2.4-.9.8L47,15.9Z" transform="translate(-1.5 -1.5)" fill="#fff"/><path d="M51,19.9l2.8-3.8.9,1.6-1,1.1-1,1.2h0l1.5-.2,1.5-.2.9,1.5-4.8.3-1.8,1-.8-1.5Z" transform="translate(-1.5 -1.5)" fill="#fff"/></svg>